<svg width="31" height="17" viewBox="0 0 31 17" fill="none" xmlns="http://www.w3.org/2000/svg">
<path d="M0.648438 0.242188C1.14844 0.367188 1.625 0.460938 2.07812 0.523438C2.53125 0.585937 2.92969 0.632812 3.27344 0.664062C3.67969 0.710938 4.05469 0.726562 4.39844 0.710938C4.83594 0.710938 5.38281 0.671875 6.03906 0.59375C6.71094 0.515625 7.39844 0.445312 8.10156 0.382812C8.80469 0.304687 9.47656 0.257812 10.1172 0.242188C10.7734 0.210937 11.3047 0.25 11.7109 0.359375C12.1172 0.453125 12.5312 0.601563 12.9531 0.804688C13.3906 0.992188 13.7891 1.23438 14.1484 1.53125C14.5078 1.8125 14.8047 2.14844 15.0391 2.53906C15.2734 2.91406 15.4062 3.34375 15.4375 3.82812C15.4219 4.4375 15.2812 5.00781 15.0156 5.53906C14.7969 5.99219 14.4297 6.46094 13.9141 6.94531C13.3984 7.41406 12.6562 7.77344 11.6875 8.02344C12.1719 8.08594 12.5859 8.19531 12.9297 8.35156C13.2891 8.49219 13.5938 8.66406 13.8438 8.86719C14.1094 9.05469 14.3203 9.26562 14.4766 9.5C14.6484 9.73438 14.7812 9.96875 14.875 10.2031C15.1094 10.75 15.2188 11.3594 15.2031 12.0312C15.1094 12.9062 14.9297 13.6016 14.6641 14.1172C14.4141 14.6328 14.125 15.0312 13.7969 15.3125C13.4688 15.5938 13.1328 15.7891 12.7891 15.8984C12.4453 16.0078 12.1328 16.0938 11.8516 16.1562C11.5703 16.2188 11.2266 16.25 10.8203 16.25C10.4141 16.25 9.97656 16.2422 9.50781 16.2266C9.05469 16.1953 8.58594 16.1719 8.10156 16.1562C7.61719 16.125 7.15625 16.125 6.71875 16.1562C6.35938 16.1875 5.92188 16.2188 5.40625 16.25C4.96875 16.2812 4.42188 16.3203 3.76562 16.3672C3.10938 16.3984 2.34375 16.4375 1.46875 16.4844C1.64062 16.3594 1.78125 16.2188 1.89062 16.0625C2.01562 15.8906 2.11719 15.7422 2.19531 15.6172C2.27344 15.4609 2.34375 15.3125 2.40625 15.1719C2.45312 15.0469 2.49219 14.7031 2.52344 14.1406C2.55469 13.5781 2.57812 12.9062 2.59375 12.125C2.60938 11.3281 2.61719 10.4766 2.61719 9.57031C2.63281 8.64844 2.625 7.76562 2.59375 6.92188C2.57812 6.0625 2.54688 5.30469 2.5 4.64844C2.46875 3.97656 2.42188 3.49219 2.35938 3.19531C2.26562 2.86719 2.14062 2.53125 1.98438 2.1875C1.85938 1.89063 1.67969 1.57031 1.44531 1.22656C1.22656 0.882813 0.960938 0.554688 0.648438 0.242188ZM5.59375 2.63281C5.59375 2.69531 5.60156 2.90625 5.61719 3.26562C5.63281 3.57812 5.64844 4.0625 5.66406 4.71875C5.69531 5.35938 5.73438 6.27344 5.78125 7.46094C6.17188 7.63281 6.55469 7.72656 6.92969 7.74219C7.30469 7.74219 7.64062 7.72656 7.9375 7.69531C8.28125 7.64844 8.60938 7.57031 8.92188 7.46094C9.34375 7.28906 9.67188 7.00781 9.90625 6.61719C10.1562 6.22656 10.3203 5.82031 10.3984 5.39844C10.4922 4.96094 10.5156 4.55469 10.4688 4.17969C10.4219 3.78906 10.3203 3.50781 10.1641 3.33594C9.86719 3.07031 9.5 2.85156 9.0625 2.67969C8.6875 2.53906 8.21094 2.44531 7.63281 2.39844C7.07031 2.33594 6.39062 2.41406 5.59375 2.63281ZM5.47656 13.7422C6.05469 14.0391 6.5625 14.2344 7 14.3281C7.4375 14.4219 7.80469 14.4688 8.10156 14.4688C8.44531 14.4688 8.74219 14.4219 8.99219 14.3281C9.28906 14.1875 9.57812 14 9.85938 13.7656C10.1562 13.5156 10.375 13.2266 10.5156 12.8984C10.6719 12.5547 10.7344 12.1797 10.7031 11.7734C10.6719 11.3516 10.4922 10.8906 10.1641 10.3906C9.86719 10.0312 9.50781 9.75 9.08594 9.54688C8.71094 9.375 8.23438 9.26562 7.65625 9.21875C7.09375 9.17188 6.39844 9.30469 5.57031 9.61719L5.47656 13.7422ZM15.4375 0.359375C15.9844 0.421875 16.4453 0.46875 16.8203 0.5C17.1953 0.515625 17.4922 0.53125 17.7109 0.546875C17.9766 0.5625 18.1875 0.570312 18.3438 0.570312C18.6094 0.570312 18.9141 0.5625 19.2578 0.546875C19.5547 0.53125 19.8984 0.507813 20.2891 0.476562C20.6953 0.429688 21.1328 0.359375 21.6016 0.265625C21.3828 0.5 21.2031 0.726562 21.0625 0.945312C20.9219 1.14844 20.8125 1.33594 20.7344 1.50781C20.6406 1.69531 20.5625 1.86719 20.5 2.02344C20.4375 2.22656 20.3672 2.53906 20.2891 2.96094C20.2109 3.32031 20.125 3.82812 20.0312 4.48438C19.9531 5.14062 19.8516 6 19.7266 7.0625C20.2578 7.07812 20.7188 7.08594 21.1094 7.08594C21.5 7.07031 21.8281 7.0625 22.0938 7.0625H22.8672C23.0859 7.04688 23.3359 7.03125 23.6172 7.01562C24.0859 7 24.7969 6.95312 25.75 6.875C25.8281 6.15625 25.8672 5.53906 25.8672 5.02344C25.8828 4.49219 25.875 4.04688 25.8438 3.6875C25.8125 3.28125 25.7656 2.9375 25.7031 2.65625C25.6562 2.5 25.5859 2.3125 25.4922 2.09375C25.4141 1.90625 25.3047 1.67969 25.1641 1.41406C25.0391 1.13281 24.8672 0.796875 24.6484 0.40625C25.0547 0.46875 25.4141 0.515625 25.7266 0.546875C26.0547 0.5625 26.3281 0.578125 26.5469 0.59375C26.7969 0.609375 27.0078 0.617188 27.1797 0.617188C27.3516 0.617188 27.5781 0.609375 27.8594 0.59375C28.0938 0.578125 28.3828 0.570312 28.7266 0.570312C29.0703 0.554688 29.4922 0.53125 29.9922 0.5C29.8672 0.71875 29.7578 0.945312 29.6641 1.17969C29.5703 1.41406 29.4922 1.625 29.4297 1.8125C29.3672 2.03125 29.3047 2.25 29.2422 2.46875C29.1641 2.79688 29.0938 3.27344 29.0312 3.89844C28.9844 4.52344 28.9375 5.21875 28.8906 5.98438C28.8594 6.75 28.8281 7.54688 28.7969 8.375C28.7812 9.20312 28.7656 9.98438 28.75 10.7188C28.75 11.4531 28.7578 12.1094 28.7734 12.6875C28.7891 13.25 28.8203 13.6484 28.8672 13.8828C28.9141 14.1641 28.9922 14.4531 29.1016 14.75C29.1953 15.0156 29.3203 15.3047 29.4766 15.6172C29.6328 15.9141 29.8359 16.1953 30.0859 16.4609L24.4375 16.8828C24.6719 16.6641 24.8594 16.4531 25 16.25C25.1406 16.0312 25.25 15.8438 25.3281 15.6875C25.4062 15.5156 25.4609 15.3516 25.4922 15.1953C25.5078 15.0078 25.5312 14.6797 25.5625 14.2109C25.5938 13.8203 25.625 13.2656 25.6562 12.5469C25.6875 11.8281 25.7188 10.875 25.75 9.6875C25.5312 9.6875 25.2656 9.69531 24.9531 9.71094C24.6562 9.71094 24.375 9.71875 24.1094 9.73438C23.7969 9.75 23.4688 9.75781 23.125 9.75781C22.7812 9.77344 22.4219 9.78906 22.0469 9.80469C21.7344 9.83594 21.3828 9.86719 20.9922 9.89844C20.6172 9.91406 20.2422 9.9375 19.8672 9.96875C19.8359 10.625 19.8359 11.2031 19.8672 11.7031C19.8984 12.1875 19.9453 12.6016 20.0078 12.9453C20.0703 13.3516 20.1484 13.7031 20.2422 14C20.3359 14.2812 20.4375 14.5625 20.5469 14.8438C20.6406 15.0938 20.75 15.3594 20.875 15.6406C21.0156 15.9219 21.1562 16.1719 21.2969 16.3906C21 16.3594 20.7266 16.3359 20.4766 16.3203C20.2266 16.2891 20.0078 16.2578 19.8203 16.2266C19.6016 16.2109 19.3906 16.1953 19.1875 16.1797C18.9844 16.1797 18.7422 16.1719 18.4609 16.1562C18.2109 16.1406 17.8984 16.1328 17.5234 16.1328C17.1484 16.1172 16.7109 16.1094 16.2109 16.1094C16.5078 15.8125 16.7422 15.5234 16.9141 15.2422C17.1016 14.9453 17.2344 14.6797 17.3125 14.4453C17.4062 14.1641 17.4688 13.9062 17.5 13.6719C17.5156 13.4688 17.5234 13.0859 17.5234 12.5234C17.5391 11.9609 17.5391 11.3203 17.5234 10.6016C17.5234 9.86719 17.5156 9.10156 17.5 8.30469C17.4844 7.49219 17.4609 6.73438 17.4297 6.03125C17.4141 5.32812 17.3906 4.72656 17.3594 4.22656C17.3438 3.71094 17.3281 3.39062 17.3125 3.26562C17.2344 2.98438 17.1172 2.67969 16.9609 2.35156C16.8203 2.08594 16.6328 1.78125 16.3984 1.4375C16.1641 1.07812 15.8438 0.71875 15.4375 0.359375Z" fill="white"/>
</svg>
